<?xml version="1.0" encoding="UTF-8"?>
<svg id="Layer_1" xmlns="http://www.w3.org/2000/svg" version="1.1" viewBox="0 0 800 800">
  <!-- Generator: Adobe Illustrator 30.2.1, SVG Export Plug-In . SVG Version: 2.1.1 Build 1)  -->
  <rect x=".9" y=".9" width="799.1" height="799.1" fill="#fff"/>
  <g>
    <rect x="216.4" y="43.6" width="21.6" height="21.6" fill="#3a4b5c"/>
    <rect x="346" y="43.6" width="21.6" height="21.6" fill="#3a4b5c"/>
    <rect x="432.4" y="43.6" width="21.6" height="21.6" fill="#3a4b5c"/>
    <rect x="475.6" y="43.6" width="21.6" height="21.6" fill="#3a4b5c"/>
    <rect x="518.8" y="43.6" width="21.6" height="21.6" fill="#3a4b5c"/>
    <rect x="540.4" y="43.6" width="21.6" height="21.6" fill="#3a4b5c"/>
    <rect x="562" y="43.6" width="21.6" height="21.6" fill="#3a4b5c"/>
    <rect x="238" y="65.2" width="21.6" height="21.6" fill="#3a4b5c"/>
    <rect x="281.2" y="65.2" width="21.6" height="21.6" fill="#3a4b5c"/>
    <rect x="432.4" y="65.2" width="21.6" height="21.6" fill="#3a4b5c"/>
    <rect x="475.6" y="65.2" width="21.6" height="21.6" fill="#3a4b5c"/>
    <rect x="540.4" y="65.2" width="21.6" height="21.6" fill="#3a4b5c"/>
    <rect x="562" y="65.2" width="21.6" height="21.6" fill="#3a4b5c"/>
    <rect x="238" y="86.8" width="21.6" height="21.6" fill="#3a4b5c"/>
    <rect x="259.6" y="86.8" width="21.6" height="21.6" fill="#3a4b5c"/>
    <rect x="281.2" y="86.8" width="21.6" height="21.6" fill="#3a4b5c"/>
    <rect x="302.8" y="86.8" width="21.6" height="21.6" fill="#3a4b5c"/>
    <rect x="324.4" y="86.8" width="21.6" height="21.6" fill="#3a4b5c"/>
    <rect x="346" y="86.8" width="21.6" height="21.6" fill="#3a4b5c"/>
    <rect x="454" y="86.8" width="21.6" height="21.6" fill="#3a4b5c"/>
    <rect x="518.8" y="86.8" width="21.6" height="21.6" fill="#3a4b5c"/>
    <rect x="540.4" y="86.8" width="21.6" height="21.6" fill="#3a4b5c"/>
    <rect x="216.4" y="108.4" width="21.6" height="21.6" fill="#3a4b5c"/>
    <rect x="281.2" y="108.4" width="21.6" height="21.6" fill="#3a4b5c"/>
    <rect x="302.8" y="108.4" width="21.6" height="21.6" fill="#3a4b5c"/>
    <rect x="475.6" y="108.4" width="21.6" height="21.6" fill="#3a4b5c"/>
    <rect x="518.8" y="108.4" width="21.6" height="21.6" fill="#3a4b5c"/>
    <rect x="562" y="108.4" width="21.6" height="21.6" fill="#3a4b5c"/>
    <rect x="259.6" y="130" width="21.6" height="21.6" fill="#3a4b5c"/>
    <rect x="324.4" y="130" width="21.6" height="21.6" fill="#3a4b5c"/>
    <rect x="346" y="130" width="21.6" height="21.6" fill="#3a4b5c"/>
    <rect x="389.2" y="130" width="21.6" height="21.6" fill="#3a4b5c"/>
    <rect x="410.8" y="130" width="21.6" height="21.6" fill="#3a4b5c"/>
    <rect x="454" y="130" width="21.6" height="21.6" fill="#3a4b5c"/>
    <rect x="475.6" y="130" width="21.6" height="21.6" fill="#3a4b5c"/>
    <rect x="497.2" y="130" width="21.6" height="21.6" fill="#3a4b5c"/>
    <rect x="518.8" y="130" width="21.6" height="21.6" fill="#3a4b5c"/>
    <rect x="562" y="130" width="21.6" height="21.6" fill="#3a4b5c"/>
    <rect x="238" y="151.6" width="21.6" height="21.6" fill="#3a4b5c"/>
    <rect x="259.6" y="151.6" width="21.6" height="21.6" fill="#3a4b5c"/>
    <rect x="281.2" y="151.6" width="21.6" height="21.6" fill="#3a4b5c"/>
    <rect x="367.6" y="151.6" width="21.6" height="21.6" fill="#3a4b5c"/>
    <rect x="389.2" y="151.6" width="21.6" height="21.6" fill="#3a4b5c"/>
    <rect x="410.8" y="151.6" width="21.6" height="21.6" fill="#3a4b5c"/>
    <rect x="475.6" y="151.6" width="21.6" height="21.6" fill="#3a4b5c"/>
    <rect x="518.8" y="151.6" width="21.6" height="21.6" fill="#3a4b5c"/>
    <rect x="540.4" y="151.6" width="21.6" height="21.6" fill="#3a4b5c"/>
    <rect x="562" y="151.6" width="21.6" height="21.6" fill="#3a4b5c"/>
    <rect x="216.4" y="173.2" width="21.6" height="21.6" fill="#3a4b5c"/>
    <rect x="259.6" y="173.2" width="21.6" height="21.6" fill="#3a4b5c"/>
    <rect x="302.8" y="173.2" width="21.6" height="21.6" fill="#3a4b5c"/>
    <rect x="346" y="173.2" width="21.6" height="21.6" fill="#3a4b5c"/>
    <rect x="389.2" y="173.2" width="21.6" height="21.6" fill="#3a4b5c"/>
    <rect x="432.4" y="173.2" width="21.6" height="21.6" fill="#3a4b5c"/>
    <rect x="475.6" y="173.2" width="21.6" height="21.6" fill="#3a4b5c"/>
    <rect x="518.8" y="173.2" width="21.6" height="21.6" fill="#3a4b5c"/>
    <rect x="562" y="173.2" width="21.6" height="21.6" fill="#3a4b5c"/>
    <rect x="238" y="194.8" width="21.6" height="21.6" fill="#3a4b5c"/>
    <rect x="259.6" y="194.8" width="21.6" height="21.6" fill="#3a4b5c"/>
    <rect x="281.2" y="194.8" width="21.6" height="21.6" fill="#3a4b5c"/>
    <rect x="324.4" y="194.8" width="21.6" height="21.6" fill="#3a4b5c"/>
    <rect x="367.6" y="194.8" width="21.6" height="21.6" fill="#3a4b5c"/>
    <rect x="410.8" y="194.8" width="21.6" height="21.6" fill="#3a4b5c"/>
    <rect x="432.4" y="194.8" width="21.6" height="21.6" fill="#3a4b5c"/>
    <rect x="475.6" y="194.8" width="21.6" height="21.6" fill="#3a4b5c"/>
    <rect x="497.2" y="194.8" width="21.6" height="21.6" fill="#3a4b5c"/>
    <rect x="518.8" y="194.8" width="21.6" height="21.6" fill="#3a4b5c"/>
    <rect x="540.4" y="194.8" width="21.6" height="21.6" fill="#3a4b5c"/>
    <rect x="86.8" y="216.4" width="21.6" height="21.6" fill="#3a4b5c"/>
    <rect x="130" y="216.4" width="21.6" height="21.6" fill="#3a4b5c"/>
    <rect x="151.6" y="216.4" width="21.6" height="21.6" fill="#3a4b5c"/>
    <rect x="173.2" y="216.4" width="21.6" height="21.6" fill="#3a4b5c"/>
    <rect x="216.4" y="216.4" width="21.6" height="21.6" fill="#3a4b5c"/>
    <rect x="238" y="216.4" width="21.6" height="21.6" fill="#3a4b5c"/>
    <rect x="302.8" y="216.4" width="21.6" height="21.6" fill="#3a4b5c"/>
    <rect x="324.4" y="216.4" width="21.6" height="21.6" fill="#3a4b5c"/>
    <rect x="367.6" y="216.4" width="21.6" height="21.6" fill="#3a4b5c"/>
    <rect x="497.2" y="216.4" width="21.6" height="21.6" fill="#3a4b5c"/>
    <rect x="518.8" y="216.4" width="21.6" height="21.6" fill="#3a4b5c"/>
    <rect x="562" y="216.4" width="21.6" height="21.6" fill="#3a4b5c"/>
    <rect x="583.6" y="216.4" width="21.6" height="21.6" fill="#3a4b5c"/>
    <rect x="670" y="216.4" width="21.6" height="21.6" fill="#3a4b5c"/>
    <rect x="734.8" y="216.4" width="21.6" height="21.6" fill="#3a4b5c"/>
    <rect x="43.6" y="238" width="21.6" height="21.6" fill="#3a4b5c"/>
    <rect x="65.2" y="238" width="21.6" height="21.6" fill="#3a4b5c"/>
    <rect x="86.8" y="238" width="21.6" height="21.6" fill="#3a4b5c"/>
    <rect x="108.4" y="238" width="21.6" height="21.6" fill="#3a4b5c"/>
    <rect x="151.6" y="238" width="21.6" height="21.6" fill="#3a4b5c"/>
    <rect x="194.8" y="238" width="21.6" height="21.6" fill="#3a4b5c"/>
    <rect x="216.4" y="238" width="21.6" height="21.6" fill="#3a4b5c"/>
    <rect x="238" y="238" width="21.6" height="21.6" fill="#3a4b5c"/>
    <rect x="259.6" y="238" width="21.6" height="21.6" fill="#3a4b5c"/>
    <rect x="281.2" y="238" width="21.6" height="21.6" fill="#3a4b5c"/>
    <rect x="302.8" y="238" width="21.6" height="21.6" fill="#3a4b5c"/>
    <rect x="324.4" y="238" width="21.6" height="21.6" fill="#3a4b5c"/>
    <rect x="454" y="238" width="21.6" height="21.6" fill="#3a4b5c"/>
    <rect x="475.6" y="238" width="21.6" height="21.6" fill="#3a4b5c"/>
    <rect x="518.8" y="238" width="21.6" height="21.6" fill="#3a4b5c"/>
    <rect x="605.2" y="238" width="21.6" height="21.6" fill="#3a4b5c"/>
    <rect x="670" y="238" width="21.6" height="21.6" fill="#3a4b5c"/>
    <rect x="734.8" y="238" width="21.6" height="21.6" fill="#3a4b5c"/>
    <rect x="86.8" y="259.6" width="21.6" height="21.6" fill="#3a4b5c"/>
    <rect x="130" y="259.6" width="21.6" height="21.6" fill="#3a4b5c"/>
    <rect x="151.6" y="259.6" width="21.6" height="21.6" fill="#3a4b5c"/>
    <rect x="173.2" y="259.6" width="21.6" height="21.6" fill="#3a4b5c"/>
    <rect x="194.8" y="259.6" width="21.6" height="21.6" fill="#3a4b5c"/>
    <rect x="259.6" y="259.6" width="21.6" height="21.6" fill="#3a4b5c"/>
    <rect x="281.2" y="259.6" width="21.6" height="21.6" fill="#3a4b5c"/>
    <rect x="324.4" y="259.6" width="21.6" height="21.6" fill="#3a4b5c"/>
    <rect x="346" y="259.6" width="21.6" height="21.6" fill="#3a4b5c"/>
    <rect x="367.6" y="259.6" width="21.6" height="21.6" fill="#3a4b5c"/>
    <rect x="389.2" y="259.6" width="21.6" height="21.6" fill="#3a4b5c"/>
    <rect x="432.4" y="259.6" width="21.6" height="21.6" fill="#3a4b5c"/>
    <rect x="475.6" y="259.6" width="21.6" height="21.6" fill="#3a4b5c"/>
    <rect x="497.2" y="259.6" width="21.6" height="21.6" fill="#3a4b5c"/>
    <rect x="605.2" y="259.6" width="21.6" height="21.6" fill="#3a4b5c"/>
    <rect x="648.4" y="259.6" width="21.6" height="21.6" fill="#3a4b5c"/>
    <rect x="670" y="259.6" width="21.6" height="21.6" fill="#3a4b5c"/>
    <rect x="713.2" y="259.6" width="21.6" height="21.6" fill="#3a4b5c"/>
    <rect x="734.8" y="259.6" width="21.6" height="21.6" fill="#3a4b5c"/>
    <rect x="65.2" y="281.2" width="21.6" height="21.6" fill="#3a4b5c"/>
    <rect x="86.8" y="281.2" width="21.6" height="21.6" fill="#3a4b5c"/>
    <rect x="108.4" y="281.2" width="21.6" height="21.6" fill="#3a4b5c"/>
    <rect x="151.6" y="281.2" width="21.6" height="21.6" fill="#3a4b5c"/>
    <rect x="194.8" y="281.2" width="21.6" height="21.6" fill="#3a4b5c"/>
    <rect x="238" y="281.2" width="21.6" height="21.6" fill="#3a4b5c"/>
    <rect x="259.6" y="281.2" width="21.6" height="21.6" fill="#3a4b5c"/>
    <rect x="562" y="281.2" width="21.6" height="21.6" fill="#3a4b5c"/>
    <rect x="605.2" y="281.2" width="21.6" height="21.6" fill="#3a4b5c"/>
    <rect x="713.2" y="281.2" width="21.6" height="21.6" fill="#3a4b5c"/>
    <rect x="734.8" y="281.2" width="21.6" height="21.6" fill="#3a4b5c"/>
    <rect x="43.6" y="302.8" width="21.6" height="21.6" fill="#3a4b5c"/>
    <rect x="65.2" y="302.8" width="21.6" height="21.6" fill="#3a4b5c"/>
    <rect x="108.4" y="302.8" width="21.6" height="21.6" fill="#3a4b5c"/>
    <rect x="173.2" y="302.8" width="21.6" height="21.6" fill="#3a4b5c"/>
    <rect x="194.8" y="302.8" width="21.6" height="21.6" fill="#3a4b5c"/>
    <rect x="216.4" y="302.8" width="21.6" height="21.6" fill="#3a4b5c"/>
    <rect x="259.6" y="302.8" width="21.6" height="21.6" fill="#3a4b5c"/>
    <rect x="540.4" y="302.8" width="21.6" height="21.6" fill="#3a4b5c"/>
    <rect x="583.6" y="302.8" width="21.6" height="21.6" fill="#3a4b5c"/>
    <rect x="605.2" y="302.8" width="21.6" height="21.6" fill="#3a4b5c"/>
    <rect x="648.4" y="302.8" width="21.6" height="21.6" fill="#3a4b5c"/>
    <rect x="734.8" y="302.8" width="21.6" height="21.6" fill="#3a4b5c"/>
    <rect x="43.6" y="324.4" width="21.6" height="21.6" fill="#3a4b5c"/>
    <rect x="259.6" y="324.4" width="21.6" height="21.6" fill="#3a4b5c"/>
    <rect x="562" y="324.4" width="21.6" height="21.6" fill="#3a4b5c"/>
    <rect x="583.6" y="324.4" width="21.6" height="21.6" fill="#3a4b5c"/>
    <rect x="605.2" y="324.4" width="21.6" height="21.6" fill="#3a4b5c"/>
    <rect x="648.4" y="324.4" width="21.6" height="21.6" fill="#3a4b5c"/>
    <rect x="670" y="324.4" width="21.6" height="21.6" fill="#3a4b5c"/>
    <rect x="713.2" y="324.4" width="21.6" height="21.6" fill="#3a4b5c"/>
    <rect x="734.8" y="324.4" width="21.6" height="21.6" fill="#3a4b5c"/>
    <rect x="65.2" y="346" width="21.6" height="21.6" fill="#3a4b5c"/>
    <rect x="86.8" y="346" width="21.6" height="21.6" fill="#3a4b5c"/>
    <rect x="130" y="346" width="21.6" height="21.6" fill="#3a4b5c"/>
    <rect x="151.6" y="346" width="21.6" height="21.6" fill="#3a4b5c"/>
    <rect x="173.2" y="346" width="21.6" height="21.6" fill="#3a4b5c"/>
    <rect x="194.8" y="346" width="21.6" height="21.6" fill="#3a4b5c"/>
    <rect x="583.6" y="346" width="21.6" height="21.6" fill="#3a4b5c"/>
    <rect x="691.6" y="346" width="21.6" height="21.6" fill="#3a4b5c"/>
    <rect x="713.2" y="346" width="21.6" height="21.6" fill="#3a4b5c"/>
    <rect x="734.8" y="346" width="21.6" height="21.6" fill="#3a4b5c"/>
    <rect x="43.6" y="367.6" width="21.6" height="21.6" fill="#3a4b5c"/>
    <rect x="86.8" y="367.6" width="21.6" height="21.6" fill="#3a4b5c"/>
    <rect x="151.6" y="367.6" width="21.6" height="21.6" fill="#3a4b5c"/>
    <rect x="216.4" y="367.6" width="21.6" height="21.6" fill="#3a4b5c"/>
    <rect x="238" y="367.6" width="21.6" height="21.6" fill="#3a4b5c"/>
    <rect x="259.6" y="367.6" width="21.6" height="21.6" fill="#3a4b5c"/>
    <rect x="518.8" y="367.6" width="21.6" height="21.6" fill="#3a4b5c"/>
    <rect x="562" y="367.6" width="21.6" height="21.6" fill="#3a4b5c"/>
    <rect x="605.2" y="367.6" width="21.6" height="21.6" fill="#3a4b5c"/>
    <rect x="648.4" y="367.6" width="21.6" height="21.6" fill="#3a4b5c"/>
    <rect x="670" y="367.6" width="21.6" height="21.6" fill="#3a4b5c"/>
    <rect x="713.2" y="367.6" width="21.6" height="21.6" fill="#3a4b5c"/>
    <rect x="43.6" y="389.2" width="21.6" height="21.6" fill="#3a4b5c"/>
    <rect x="65.2" y="389.2" width="21.6" height="21.6" fill="#3a4b5c"/>
    <rect x="86.8" y="389.2" width="21.6" height="21.6" fill="#3a4b5c"/>
    <rect x="108.4" y="389.2" width="21.6" height="21.6" fill="#3a4b5c"/>
    <rect x="173.2" y="389.2" width="21.6" height="21.6" fill="#3a4b5c"/>
    <rect x="194.8" y="389.2" width="21.6" height="21.6" fill="#3a4b5c"/>
    <rect x="540.4" y="389.2" width="21.6" height="21.6" fill="#3a4b5c"/>
    <rect x="562" y="389.2" width="21.6" height="21.6" fill="#3a4b5c"/>
    <rect x="583.6" y="389.2" width="21.6" height="21.6" fill="#3a4b5c"/>
    <rect x="605.2" y="389.2" width="21.6" height="21.6" fill="#3a4b5c"/>
    <rect x="670" y="389.2" width="21.6" height="21.6" fill="#3a4b5c"/>
    <rect x="713.2" y="389.2" width="21.6" height="21.6" fill="#3a4b5c"/>
    <rect x="43.6" y="410.8" width="21.6" height="21.6" fill="#3a4b5c"/>
    <rect x="65.2" y="410.8" width="21.6" height="21.6" fill="#3a4b5c"/>
    <rect x="108.4" y="410.8" width="21.6" height="21.6" fill="#3a4b5c"/>
    <rect x="151.6" y="410.8" width="21.6" height="21.6" fill="#3a4b5c"/>
    <rect x="194.8" y="410.8" width="21.6" height="21.6" fill="#3a4b5c"/>
    <rect x="238" y="410.8" width="21.6" height="21.6" fill="#3a4b5c"/>
    <rect x="259.6" y="410.8" width="21.6" height="21.6" fill="#3a4b5c"/>
    <rect x="518.8" y="410.8" width="21.6" height="21.6" fill="#3a4b5c"/>
    <rect x="583.6" y="410.8" width="21.6" height="21.6" fill="#3a4b5c"/>
    <rect x="605.2" y="410.8" width="21.6" height="21.6" fill="#3a4b5c"/>
    <rect x="626.8" y="410.8" width="21.6" height="21.6" fill="#3a4b5c"/>
    <rect x="670" y="410.8" width="21.6" height="21.6" fill="#3a4b5c"/>
    <rect x="691.6" y="410.8" width="21.6" height="21.6" fill="#3a4b5c"/>
    <rect x="734.8" y="410.8" width="21.6" height="21.6" fill="#3a4b5c"/>
    <rect x="86.8" y="432.4" width="21.6" height="21.6" fill="#3a4b5c"/>
    <rect x="151.6" y="432.4" width="21.6" height="21.6" fill="#3a4b5c"/>
    <rect x="173.2" y="432.4" width="21.6" height="21.6" fill="#3a4b5c"/>
    <rect x="194.8" y="432.4" width="21.6" height="21.6" fill="#3a4b5c"/>
    <rect x="216.4" y="432.4" width="21.6" height="21.6" fill="#3a4b5c"/>
    <rect x="562" y="432.4" width="21.6" height="21.6" fill="#3a4b5c"/>
    <rect x="605.2" y="432.4" width="21.6" height="21.6" fill="#3a4b5c"/>
    <rect x="626.8" y="432.4" width="21.6" height="21.6" fill="#3a4b5c"/>
    <rect x="648.4" y="432.4" width="21.6" height="21.6" fill="#3a4b5c"/>
    <rect x="691.6" y="432.4" width="21.6" height="21.6" fill="#3a4b5c"/>
    <rect x="734.8" y="432.4" width="21.6" height="21.6" fill="#3a4b5c"/>
    <rect x="43.6" y="454" width="21.6" height="21.6" fill="#3a4b5c"/>
    <rect x="65.2" y="454" width="21.6" height="21.6" fill="#3a4b5c"/>
    <rect x="108.4" y="454" width="21.6" height="21.6" fill="#3a4b5c"/>
    <rect x="130" y="454" width="21.6" height="21.6" fill="#3a4b5c"/>
    <rect x="216.4" y="454" width="21.6" height="21.6" fill="#3a4b5c"/>
    <rect x="238" y="454" width="21.6" height="21.6" fill="#3a4b5c"/>
    <rect x="518.8" y="454" width="21.6" height="21.6" fill="#3a4b5c"/>
    <rect x="648.4" y="454" width="21.6" height="21.6" fill="#3a4b5c"/>
    <rect x="713.2" y="454" width="21.6" height="21.6" fill="#3a4b5c"/>
    <rect x="43.6" y="475.6" width="21.6" height="21.6" fill="#3a4b5c"/>
    <rect x="151.6" y="475.6" width="21.6" height="21.6" fill="#3a4b5c"/>
    <rect x="173.2" y="475.6" width="21.6" height="21.6" fill="#3a4b5c"/>
    <rect x="194.8" y="475.6" width="21.6" height="21.6" fill="#3a4b5c"/>
    <rect x="238" y="475.6" width="21.6" height="21.6" fill="#3a4b5c"/>
    <rect x="259.6" y="475.6" width="21.6" height="21.6" fill="#3a4b5c"/>
    <rect x="518.8" y="475.6" width="21.6" height="21.6" fill="#3a4b5c"/>
    <rect x="540.4" y="475.6" width="21.6" height="21.6" fill="#3a4b5c"/>
    <rect x="562" y="475.6" width="21.6" height="21.6" fill="#3a4b5c"/>
    <rect x="605.2" y="475.6" width="21.6" height="21.6" fill="#3a4b5c"/>
    <rect x="626.8" y="475.6" width="21.6" height="21.6" fill="#3a4b5c"/>
    <rect x="670" y="475.6" width="21.6" height="21.6" fill="#3a4b5c"/>
    <rect x="65.2" y="497.2" width="21.6" height="21.6" fill="#3a4b5c"/>
    <rect x="108.4" y="497.2" width="21.6" height="21.6" fill="#3a4b5c"/>
    <rect x="130" y="497.2" width="21.6" height="21.6" fill="#3a4b5c"/>
    <rect x="151.6" y="497.2" width="21.6" height="21.6" fill="#3a4b5c"/>
    <rect x="238" y="497.2" width="21.6" height="21.6" fill="#3a4b5c"/>
    <rect x="259.6" y="497.2" width="21.6" height="21.6" fill="#3a4b5c"/>
    <rect x="540.4" y="497.2" width="21.6" height="21.6" fill="#3a4b5c"/>
    <rect x="562" y="497.2" width="21.6" height="21.6" fill="#3a4b5c"/>
    <rect x="713.2" y="497.2" width="21.6" height="21.6" fill="#3a4b5c"/>
    <rect x="734.8" y="497.2" width="21.6" height="21.6" fill="#3a4b5c"/>
    <rect x="43.6" y="518.8" width="21.6" height="21.6" fill="#3a4b5c"/>
    <rect x="151.6" y="518.8" width="21.6" height="21.6" fill="#3a4b5c"/>
    <rect x="173.2" y="518.8" width="21.6" height="21.6" fill="#3a4b5c"/>
    <rect x="216.4" y="518.8" width="21.6" height="21.6" fill="#3a4b5c"/>
    <rect x="259.6" y="518.8" width="21.6" height="21.6" fill="#3a4b5c"/>
    <rect x="302.8" y="518.8" width="21.6" height="21.6" fill="#3a4b5c"/>
    <rect x="324.4" y="518.8" width="21.6" height="21.6" fill="#3a4b5c"/>
    <rect x="346" y="518.8" width="21.6" height="21.6" fill="#3a4b5c"/>
    <rect x="367.6" y="518.8" width="21.6" height="21.6" fill="#3a4b5c"/>
    <rect x="389.2" y="518.8" width="21.6" height="21.6" fill="#3a4b5c"/>
    <rect x="410.8" y="518.8" width="21.6" height="21.6" fill="#3a4b5c"/>
    <rect x="432.4" y="518.8" width="21.6" height="21.6" fill="#3a4b5c"/>
    <rect x="518.8" y="518.8" width="21.6" height="21.6" fill="#3a4b5c"/>
    <rect x="540.4" y="518.8" width="21.6" height="21.6" fill="#3a4b5c"/>
    <rect x="562" y="518.8" width="21.6" height="21.6" fill="#3a4b5c"/>
    <rect x="605.2" y="518.8" width="21.6" height="21.6" fill="#3a4b5c"/>
    <rect x="626.8" y="518.8" width="21.6" height="21.6" fill="#3a4b5c"/>
    <rect x="670" y="518.8" width="21.6" height="21.6" fill="#3a4b5c"/>
    <rect x="691.6" y="518.8" width="21.6" height="21.6" fill="#3a4b5c"/>
    <rect x="713.2" y="518.8" width="21.6" height="21.6" fill="#3a4b5c"/>
    <rect x="734.8" y="518.8" width="21.6" height="21.6" fill="#3a4b5c"/>
    <rect x="65.2" y="540.4" width="21.6" height="21.6" fill="#3a4b5c"/>
    <rect x="108.4" y="540.4" width="21.6" height="21.6" fill="#3a4b5c"/>
    <rect x="130" y="540.4" width="21.6" height="21.6" fill="#3a4b5c"/>
    <rect x="194.8" y="540.4" width="21.6" height="21.6" fill="#3a4b5c"/>
    <rect x="216.4" y="540.4" width="21.6" height="21.6" fill="#3a4b5c"/>
    <rect x="259.6" y="540.4" width="21.6" height="21.6" fill="#3a4b5c"/>
    <rect x="302.8" y="540.4" width="21.6" height="21.6" fill="#3a4b5c"/>
    <rect x="346" y="540.4" width="21.6" height="21.6" fill="#3a4b5c"/>
    <rect x="367.6" y="540.4" width="21.6" height="21.6" fill="#3a4b5c"/>
    <rect x="410.8" y="540.4" width="21.6" height="21.6" fill="#3a4b5c"/>
    <rect x="454" y="540.4" width="21.6" height="21.6" fill="#3a4b5c"/>
    <rect x="475.6" y="540.4" width="21.6" height="21.6" fill="#3a4b5c"/>
    <rect x="497.2" y="540.4" width="21.6" height="21.6" fill="#3a4b5c"/>
    <rect x="518.8" y="540.4" width="21.6" height="21.6" fill="#3a4b5c"/>
    <rect x="562" y="540.4" width="21.6" height="21.6" fill="#3a4b5c"/>
    <rect x="583.6" y="540.4" width="21.6" height="21.6" fill="#3a4b5c"/>
    <rect x="626.8" y="540.4" width="21.6" height="21.6" fill="#3a4b5c"/>
    <rect x="713.2" y="540.4" width="21.6" height="21.6" fill="#3a4b5c"/>
    <rect x="734.8" y="540.4" width="21.6" height="21.6" fill="#3a4b5c"/>
    <rect x="43.6" y="562" width="21.6" height="21.6" fill="#3a4b5c"/>
    <rect x="108.4" y="562" width="21.6" height="21.6" fill="#3a4b5c"/>
    <rect x="130" y="562" width="21.6" height="21.6" fill="#3a4b5c"/>
    <rect x="173.2" y="562" width="21.6" height="21.6" fill="#3a4b5c"/>
    <rect x="194.8" y="562" width="21.6" height="21.6" fill="#3a4b5c"/>
    <rect x="238" y="562" width="21.6" height="21.6" fill="#3a4b5c"/>
    <rect x="259.6" y="562" width="21.6" height="21.6" fill="#3a4b5c"/>
    <rect x="346" y="562" width="21.6" height="21.6" fill="#3a4b5c"/>
    <rect x="367.6" y="562" width="21.6" height="21.6" fill="#3a4b5c"/>
    <rect x="389.2" y="562" width="21.6" height="21.6" fill="#3a4b5c"/>
    <rect x="410.8" y="562" width="21.6" height="21.6" fill="#3a4b5c"/>
    <rect x="497.2" y="562" width="21.6" height="21.6" fill="#3a4b5c"/>
    <rect x="518.8" y="562" width="21.6" height="21.6" fill="#3a4b5c"/>
    <rect x="540.4" y="562" width="21.6" height="21.6" fill="#3a4b5c"/>
    <rect x="562" y="562" width="21.6" height="21.6" fill="#3a4b5c"/>
    <rect x="583.6" y="562" width="21.6" height="21.6" fill="#3a4b5c"/>
    <rect x="605.2" y="562" width="21.6" height="21.6" fill="#3a4b5c"/>
    <rect x="626.8" y="562" width="21.6" height="21.6" fill="#3a4b5c"/>
    <rect x="648.4" y="562" width="21.6" height="21.6" fill="#3a4b5c"/>
    <rect x="670" y="562" width="21.6" height="21.6" fill="#3a4b5c"/>
    <rect x="713.2" y="562" width="21.6" height="21.6" fill="#3a4b5c"/>
    <rect x="216.4" y="583.6" width="21.6" height="21.6" fill="#3a4b5c"/>
    <rect x="238" y="583.6" width="21.6" height="21.6" fill="#3a4b5c"/>
    <rect x="259.6" y="583.6" width="21.6" height="21.6" fill="#3a4b5c"/>
    <rect x="281.2" y="583.6" width="21.6" height="21.6" fill="#3a4b5c"/>
    <rect x="324.4" y="583.6" width="21.6" height="21.6" fill="#3a4b5c"/>
    <rect x="454" y="583.6" width="21.6" height="21.6" fill="#3a4b5c"/>
    <rect x="497.2" y="583.6" width="21.6" height="21.6" fill="#3a4b5c"/>
    <rect x="518.8" y="583.6" width="21.6" height="21.6" fill="#3a4b5c"/>
    <rect x="540.4" y="583.6" width="21.6" height="21.6" fill="#3a4b5c"/>
    <rect x="562" y="583.6" width="21.6" height="21.6" fill="#3a4b5c"/>
    <rect x="648.4" y="583.6" width="21.6" height="21.6" fill="#3a4b5c"/>
    <rect x="691.6" y="583.6" width="21.6" height="21.6" fill="#3a4b5c"/>
    <rect x="734.8" y="583.6" width="21.6" height="21.6" fill="#3a4b5c"/>
    <rect x="238" y="605.2" width="21.6" height="21.6" fill="#3a4b5c"/>
    <rect x="346" y="605.2" width="21.6" height="21.6" fill="#3a4b5c"/>
    <rect x="389.2" y="605.2" width="21.6" height="21.6" fill="#3a4b5c"/>
    <rect x="410.8" y="605.2" width="21.6" height="21.6" fill="#3a4b5c"/>
    <rect x="518.8" y="605.2" width="21.6" height="21.6" fill="#3a4b5c"/>
    <rect x="540.4" y="605.2" width="21.6" height="21.6" fill="#3a4b5c"/>
    <rect x="562" y="605.2" width="21.6" height="21.6" fill="#3a4b5c"/>
    <rect x="605.2" y="605.2" width="21.6" height="21.6" fill="#3a4b5c"/>
    <rect x="648.4" y="605.2" width="21.6" height="21.6" fill="#3a4b5c"/>
    <rect x="670" y="605.2" width="21.6" height="21.6" fill="#3a4b5c"/>
    <rect x="713.2" y="605.2" width="21.6" height="21.6" fill="#3a4b5c"/>
    <rect x="734.8" y="605.2" width="21.6" height="21.6" fill="#3a4b5c"/>
    <rect x="216.4" y="626.8" width="21.6" height="21.6" fill="#3a4b5c"/>
    <rect x="259.6" y="626.8" width="21.6" height="21.6" fill="#3a4b5c"/>
    <rect x="367.6" y="626.8" width="21.6" height="21.6" fill="#3a4b5c"/>
    <rect x="454" y="626.8" width="21.6" height="21.6" fill="#3a4b5c"/>
    <rect x="497.2" y="626.8" width="21.6" height="21.6" fill="#3a4b5c"/>
    <rect x="518.8" y="626.8" width="21.6" height="21.6" fill="#3a4b5c"/>
    <rect x="562" y="626.8" width="21.6" height="21.6" fill="#3a4b5c"/>
    <rect x="648.4" y="626.8" width="21.6" height="21.6" fill="#3a4b5c"/>
    <rect x="713.2" y="626.8" width="21.6" height="21.6" fill="#3a4b5c"/>
    <rect x="216.4" y="648.4" width="21.6" height="21.6" fill="#3a4b5c"/>
    <rect x="281.2" y="648.4" width="21.6" height="21.6" fill="#3a4b5c"/>
    <rect x="302.8" y="648.4" width="21.6" height="21.6" fill="#3a4b5c"/>
    <rect x="324.4" y="648.4" width="21.6" height="21.6" fill="#3a4b5c"/>
    <rect x="367.6" y="648.4" width="21.6" height="21.6" fill="#3a4b5c"/>
    <rect x="389.2" y="648.4" width="21.6" height="21.6" fill="#3a4b5c"/>
    <rect x="410.8" y="648.4" width="21.6" height="21.6" fill="#3a4b5c"/>
    <rect x="432.4" y="648.4" width="21.6" height="21.6" fill="#3a4b5c"/>
    <rect x="518.8" y="648.4" width="21.6" height="21.6" fill="#3a4b5c"/>
    <rect x="562" y="648.4" width="21.6" height="21.6" fill="#3a4b5c"/>
    <rect x="583.6" y="648.4" width="21.6" height="21.6" fill="#3a4b5c"/>
    <rect x="605.2" y="648.4" width="21.6" height="21.6" fill="#3a4b5c"/>
    <rect x="626.8" y="648.4" width="21.6" height="21.6" fill="#3a4b5c"/>
    <rect x="648.4" y="648.4" width="21.6" height="21.6" fill="#3a4b5c"/>
    <rect x="713.2" y="648.4" width="21.6" height="21.6" fill="#3a4b5c"/>
    <rect x="734.8" y="648.4" width="21.6" height="21.6" fill="#3a4b5c"/>
    <rect x="259.6" y="670" width="21.6" height="21.6" fill="#3a4b5c"/>
    <rect x="281.2" y="670" width="21.6" height="21.6" fill="#3a4b5c"/>
    <rect x="302.8" y="670" width="21.6" height="21.6" fill="#3a4b5c"/>
    <rect x="324.4" y="670" width="21.6" height="21.6" fill="#3a4b5c"/>
    <rect x="346" y="670" width="21.6" height="21.6" fill="#3a4b5c"/>
    <rect x="367.6" y="670" width="21.6" height="21.6" fill="#3a4b5c"/>
    <rect x="389.2" y="670" width="21.6" height="21.6" fill="#3a4b5c"/>
    <rect x="410.8" y="670" width="21.6" height="21.6" fill="#3a4b5c"/>
    <rect x="475.6" y="670" width="21.6" height="21.6" fill="#3a4b5c"/>
    <rect x="518.8" y="670" width="21.6" height="21.6" fill="#3a4b5c"/>
    <rect x="562" y="670" width="21.6" height="21.6" fill="#3a4b5c"/>
    <rect x="583.6" y="670" width="21.6" height="21.6" fill="#3a4b5c"/>
    <rect x="648.4" y="670" width="21.6" height="21.6" fill="#3a4b5c"/>
    <rect x="216.4" y="691.6" width="21.6" height="21.6" fill="#3a4b5c"/>
    <rect x="238" y="691.6" width="21.6" height="21.6" fill="#3a4b5c"/>
    <rect x="346" y="691.6" width="21.6" height="21.6" fill="#3a4b5c"/>
    <rect x="410.8" y="691.6" width="21.6" height="21.6" fill="#3a4b5c"/>
    <rect x="475.6" y="691.6" width="21.6" height="21.6" fill="#3a4b5c"/>
    <rect x="497.2" y="691.6" width="21.6" height="21.6" fill="#3a4b5c"/>
    <rect x="540.4" y="691.6" width="21.6" height="21.6" fill="#3a4b5c"/>
    <rect x="562" y="691.6" width="21.6" height="21.6" fill="#3a4b5c"/>
    <rect x="583.6" y="691.6" width="21.6" height="21.6" fill="#3a4b5c"/>
    <rect x="626.8" y="691.6" width="21.6" height="21.6" fill="#3a4b5c"/>
    <rect x="648.4" y="691.6" width="21.6" height="21.6" fill="#3a4b5c"/>
    <rect x="691.6" y="691.6" width="21.6" height="21.6" fill="#3a4b5c"/>
    <rect x="734.8" y="691.6" width="21.6" height="21.6" fill="#3a4b5c"/>
    <rect x="238" y="713.2" width="21.6" height="21.6" fill="#3a4b5c"/>
    <rect x="259.6" y="713.2" width="21.6" height="21.6" fill="#3a4b5c"/>
    <rect x="302.8" y="713.2" width="21.6" height="21.6" fill="#3a4b5c"/>
    <rect x="389.2" y="713.2" width="21.6" height="21.6" fill="#3a4b5c"/>
    <rect x="410.8" y="713.2" width="21.6" height="21.6" fill="#3a4b5c"/>
    <rect x="432.4" y="713.2" width="21.6" height="21.6" fill="#3a4b5c"/>
    <rect x="518.8" y="713.2" width="21.6" height="21.6" fill="#3a4b5c"/>
    <rect x="540.4" y="713.2" width="21.6" height="21.6" fill="#3a4b5c"/>
    <rect x="562" y="713.2" width="21.6" height="21.6" fill="#3a4b5c"/>
    <rect x="583.6" y="713.2" width="21.6" height="21.6" fill="#3a4b5c"/>
    <rect x="626.8" y="713.2" width="21.6" height="21.6" fill="#3a4b5c"/>
    <rect x="670" y="713.2" width="21.6" height="21.6" fill="#3a4b5c"/>
    <rect x="713.2" y="713.2" width="21.6" height="21.6" fill="#3a4b5c"/>
    <rect x="259.6" y="734.8" width="21.6" height="21.6" fill="#3a4b5c"/>
    <rect x="281.2" y="734.8" width="21.6" height="21.6" fill="#3a4b5c"/>
    <rect x="302.8" y="734.8" width="21.6" height="21.6" fill="#3a4b5c"/>
    <rect x="324.4" y="734.8" width="21.6" height="21.6" fill="#3a4b5c"/>
    <rect x="410.8" y="734.8" width="21.6" height="21.6" fill="#3a4b5c"/>
    <rect x="518.8" y="734.8" width="21.6" height="21.6" fill="#3a4b5c"/>
    <rect x="540.4" y="734.8" width="21.6" height="21.6" fill="#3a4b5c"/>
    <rect x="562" y="734.8" width="21.6" height="21.6" fill="#3a4b5c"/>
    <rect x="583.6" y="734.8" width="21.6" height="21.6" fill="#3a4b5c"/>
    <rect x="626.8" y="734.8" width="21.6" height="21.6" fill="#3a4b5c"/>
    <rect x="648.4" y="734.8" width="21.6" height="21.6" fill="#3a4b5c"/>
    <rect x="691.6" y="734.8" width="21.6" height="21.6" fill="#3a4b5c"/>
    <rect x="713.2" y="734.8" width="21.6" height="21.6" fill="#3a4b5c"/>
    <rect x="734.8" y="734.8" width="21.6" height="21.6" fill="#3a4b5c"/>
    <rect x="66.3" y="66.3" width="105.8" height="105.8" fill="none"/>
    <path d="M172.1,43.6H43.6v151.2h151.2V43.6h-22.7ZM172.1,172.1h-105.8v-105.8h105.8v105.8Z" fill="#3a4b5c"/>
    <rect x="627.9" y="66.3" width="105.8" height="105.8" fill="none"/>
    <path d="M733.7,43.6h-128.5v151.2h151.2V43.6h-22.7ZM733.7,172.1h-105.8v-105.8h105.8v105.8Z" fill="#3a4b5c"/>
    <rect x="66.3" y="627.9" width="105.8" height="105.8" fill="none"/>
    <path d="M172.1,605.2H43.6v151.2h151.2v-151.2h-22.7ZM172.1,733.7h-105.8v-105.8h105.8v105.8Z" fill="#3a4b5c"/>
    <rect x="86.8" y="86.8" width="64.8" height="64.8" fill="#feb100"/>
    <rect x="648.4" y="86.8" width="64.8" height="64.8" fill="#feb100"/>
    <rect x="86.8" y="648.4" width="64.8" height="64.8" fill="#feb100"/>
  </g>
  <g>
    <path d="M518.7,281.3h-237.4v237.4h237.4v-237.4h0Z" fill="#fff"/>
    <rect x="300.1" y="300.2" width="199.8" height="199.5" fill="#3a4b5c"/>
    <path d="M433.5,380v-46.3h-23.6v30.5h-35.7l16.2,19.7h19.5v46.9c0,8.5,1.2,15.1,3.5,19.9,2.3,4.8,5.2,8.3,8.6,10.6,3.4,2.3,6.9,3.7,10.7,4.2,3.8.5,7.1.8,9.9.8s6.8-.2,9.9-.5c3.2-.3,5.7-.5,7.6-.8v-20.7c-1.2.5-2.9.6-5.4.6h-6.5c-2.3,0-4.4-.2-6.2-.6-1.8-.5-3.3-1.3-4.6-2.7-1.3-1.4-2.2-3.3-2.9-5.9-.6-2.6-1-6-1-10.3v-41.4h34l16.2-19.7h-37.1s-13,15.8-13,15.8Z" fill="#fff"/>
    <polygon points="353.5 383.9 369.7 364.2 332.6 364.2 316.4 383.9 353.5 383.9" fill="#feb100"/>
  </g>
</svg>